<?xml version='1.0' encoding='utf-8'?>
<svg width="636.166501mm" height="888.35mm" viewBox="-318.081501 -444.175 636.166501 888.35" version="1.1" xmlns="http://www.w3.org/2000/svg">
  <g transform="scale(1,-1)" stroke-linecap="round">
    <g fill="none" stroke="rgb(17,23,39)" stroke-width="0.09" id="Visible">
      <line x1="96.198581" y1="256.0" x2="118.298581" y2="256.0" />
      <line x1="126.298581" y1="256.0" x2="128.298581" y2="256.0" />
      <line x1="138.298581" y1="256.0" x2="188.298581" y2="256.0" />
      <line x1="198.298581" y1="256.0" x2="218.298581" y2="256.0" />
      <line x1="218.298581" y1="256.0" x2="218.298581" y2="311.0" />
      <line x1="54.548581" y1="406.0" x2="54.548581" y2="406.05" />
      <line x1="54.548581" y1="425.85" x2="54.548581" y2="441.0" />
      <line x1="43.298581" y1="386.0" x2="43.298581" y2="306.0" />
      <line x1="62.048581" y1="406.0" x2="54.548581" y2="406.0" />
      <line x1="62.048581" y1="406.0" x2="62.048581" y2="406.787713" />
      <line x1="62.048581" y1="425.112287" x2="62.048581" y2="441.0" />
      <line x1="82.548581" y1="441.0" x2="75.298581" y2="441.0" />
      <line x1="69.298581" y1="441.0" x2="62.048581" y2="441.0" />
      <line x1="218.298581" y1="311.0" x2="103.298581" y2="441.0" />
      <line x1="82.548581" y1="425.112287" x2="82.548581" y2="441.0" />
      <line x1="90.048581" y1="425.112287" x2="90.048581" y2="441.0" />
      <circle cx="128.298581" cy="346.0" r="18.0" />
      <line x1="-42.041165" y1="256.0" x2="-42.041165" y2="306.0" />
      <line x1="76.398581" y1="256.0" x2="-7.400149" y2="256.0" />
      <line x1="-42.041165" y1="256.0" x2="-7.400149" y2="256.0" />
      <line x1="-42.041165" y1="306.0" x2="-7.400149" y2="306.0" />
      <line x1="-7.400149" y1="256.0" x2="-7.400149" y2="306.0" />
      <line x1="76.398581" y1="306.0" x2="-7.400149" y2="306.0" />
      <path d="M 198.298581,259.505103 A 25.0,25.0 -90.0 1,1 188.298581,259.505103" />
      <path d="M 198.298581,274.202041 A 11.0,11.0 -90.0 1,1 188.298581,274.202041" />
      <path d="M 138.298581,261.087122 A 25.0,25.0 -90.0 1,1 118.298581,261.087122" />
      <path d="M 126.298581,259.080128 A 25.0,25.0 -90.0 0,1 128.298581,259.0" />
      <path d="M 138.298581,279.417424 A 11.0,11.0 -90.0 1,1 128.298581,273.0" />
      <line x1="43.298581" y1="386.0" x2="43.298581" y2="406.05" />
      <line x1="43.298581" y1="425.85" x2="43.298581" y2="441.0" />
      <line x1="101.298581" y1="441.0" x2="103.298581" y2="441.0" />
      <line x1="97.298581" y1="441.0" x2="97.298581" y2="404.0" />
      <line x1="103.298581" y1="386.0" x2="103.298581" y2="441.0" />
      <line x1="75.298581" y1="404.0" x2="76.398581" y2="404.0" />
      <line x1="96.198581" y1="404.0" x2="97.298581" y2="404.0" />
      <line x1="43.298581" y1="386.0" x2="76.398581" y2="386.0" />
      <line x1="96.198581" y1="386.0" x2="103.298581" y2="386.0" />
      <line x1="75.298581" y1="441.0" x2="75.298581" y2="404.0" />
      <line x1="43.298581" y1="441.0" x2="45.298581" y2="441.0" />
      <line x1="69.298581" y1="441.0" x2="69.298581" y2="404.0" />
      <line x1="47.298581" y1="441.0" x2="47.298581" y2="425.85" />
      <line x1="47.298581" y1="406.05" x2="47.298581" y2="404.0" />
      <line x1="47.298581" y1="404.0" x2="69.298581" y2="404.0" />
      <line x1="-49.701419" y1="256.0" x2="-49.701419" y2="306.0" />
      <line x1="-49.701419" y1="306.0" x2="-42.041165" y2="306.0" />
      <line x1="-49.701419" y1="256.0" x2="-42.041165" y2="256.0" />
      <line x1="45.298581" y1="441.0" x2="45.298581" y2="444.0" />
      <line x1="75.298581" y1="441.0" x2="101.298581" y2="441.0" />
      <line x1="45.298581" y1="441.0" x2="69.298581" y2="441.0" />
      <line x1="69.298581" y1="402.416198" x2="69.298581" y2="441.0" />
      <line x1="75.298581" y1="402.416198" x2="75.298581" y2="441.0" />
      <line x1="101.298581" y1="441.0" x2="101.298581" y2="444.0" />
      <line x1="45.298581" y1="444.0" x2="101.298581" y2="444.0" />
      <path d="M 72.298581,403.0 A 8.0,8.0 90.0 0,0 76.398581,401.869498" />
      <path d="M 76.398581,388.130502 A 8.0,8.0 90.0 1,0 72.298581,403.0" />
      <path d="M 82.548581,406.787713 Q 82.676408,406.737454 82.804236,406.687195 Q 83.061883,406.591789 83.32342,406.507627 Q 83.585962,406.426659 83.851764,406.357133 Q 84.118394,406.290853 84.387643,406.236179 Q 84.522768,406.211539 84.657893,406.186899 Q 84.929111,406.143019 85.201974,406.110922 Q 85.475208,406.082154 85.749432,406.065242 Q 86.023841,406.051675 86.29858,406.05" />
      <path d="M 113.143184,250.627657 A 9.9,0.5875238533849535 -157.63633342981328 0,1 118.298581,252.184173" />
      <path d="M 126.298581,255.462055 A 9.9,0.5875238533849535 -157.63633342981328 0,1 127.493629,256.0" />
      <path d="M 118.298581,253.326842 A 9.9,0.5875238533849535 -157.63633342981328 0,1 113.143184,250.627657" />
      <line x1="110.932849" y1="256.0" x2="113.143184" y2="250.627657" />
      <path d="M 62.048581,406.787713 C 61.285961,406.47368 60.432174,406.244398 59.598852,406.135761 C 59.154389,406.077779 58.720931,406.049192 58.298476,406.05" />
      <path d="M 58.176115,406.050757 Q 57.858653,406.05487 57.553556,406.078073" />
      <path d="M 57.074523,406.125964 L 57.013315,406.133784" />
      <path d="M 57.008066,406.134473 Q 56.768349,406.166072 56.537004,406.207985" />
      <path d="M 56.149109,406.286162 L 56.042798,406.310423" />
      <path d="M 55.184909,406.552391 L 55.073504,406.590038" />
      <path d="M 55.01436,406.610627 Q 54.877442,406.658791 54.743978,406.710151" />
      <path d="M 58.298581,406.05 A 9.900000000000004,9.900000000000004 -90.0 0,1 58.298581,425.85" />
      <path d="M 58.298581,406.05 A 9.900000000000004,7.761686852658476 90.0 1,1 58.298581,425.85" />
      <path d="M -8.545053,406.05 A 9.9,7.761686852658473 90.0 0,1 -0.783366,415.95" />
      <path d="M -0.783366,415.95 A 9.9,7.761686852658473 90.0 0,1 -8.545053,425.85" />
      <path d="M 96.198581,415.95 A 9.900000000000004,9.900000000000004 -90.0 1,1 76.398581,415.95" />
      <path d="M 96.198581,415.95 A 9.9,5.94 180.0 0,1 86.298581,421.89" />
      <path d="M 86.298581,421.89 A 9.9,5.94 180.0 0,1 76.398581,415.95" />
      <path d="M 86.298581,361.89 A 9.9,5.94 180.0 0,1 76.398581,355.95" />
      <path d="M 96.198581,355.95 A 9.9,5.94 180.0 0,1 86.298581,361.89" />
      <line x1="76.398581" y1="355.95" x2="76.398581" y2="-322.361932" />
      <path d="M 96.198581,355.95 L 95.950367,355.95 L 95.218172,355.95 L 94.038712,355.95 L 92.47113,355.95 L 90.59403,355.95 L 88.501538,355.95 L 86.298581,355.95 L 84.095623,355.95 L 82.003132,355.95 L 80.126032,355.95 L 78.558449,355.95 L 77.378989,355.95 L 76.646794,355.95 L 76.398581,355.95" />
      <path d="M 96.198581,-322.361932 L 95.950367,-322.361932 L 95.218172,-322.361932 L 94.038712,-322.361932 L 92.47113,-322.361932 L 90.59403,-322.361932 L 88.501538,-322.361932 L 86.298581,-322.361932 L 84.095623,-322.361932 L 82.003132,-322.361932 L 80.126032,-322.361932 L 78.558449,-322.361932 L 77.378989,-322.361932 L 76.646794,-322.361932 L 76.398581,-322.361932" />
      <path d="M -80.224917,415.95 A 15.0,4.806798616408933 90.0 0,1 -85.031715,430.95" />
      <path d="M -85.031715,400.95 A 15.0,4.806798616408933 90.0 0,1 -80.224917,415.95" />
      <path d="M 118.298581,269.394449 L 118.323732,269.394449 L 118.398869,269.394449 L 118.523047,269.394449 L 118.694705,269.394449 L 118.911684,269.394449 L 119.171255,269.394449 L 119.470153,269.394449 L 119.804621,269.394449 L 120.170452,269.394449 L 120.563046,269.394449 L 120.977464,269.394449 L 121.408497,269.394449 L 121.850723,269.394449 L 122.298581,269.394449" />
      <path d="M 122.298581,284.394449 L 122.298581,284.300132 L 122.298581,284.018367 L 122.298581,283.552699 L 122.298581,282.908982 L 122.298581,282.095312 L 122.298581,281.121921 L 122.298581,280.00105 L 122.298581,278.746796 L 122.298581,277.37493 L 122.298581,275.902705 L 122.298581,274.348635 L 122.298581,272.732263 L 122.298581,271.073916 L 122.298581,269.394449" />
      <path d="M 122.298581,284.394449 A 4.0,4.0 90.0 0,0 126.298581,280.394449" />
      <path d="M 118.298581,280.394449 A 4.0,4.0 90.0 0,0 122.298581,284.394449" />
      <path d="M 122.298581,269.394449 Q 122.748018,269.394449 123.188664,269.394449 Q 123.404181,269.394449 123.619697,269.394449 Q 123.826906,269.394449 124.034116,269.394449 Q 124.230412,269.394449 124.426709,269.394449 Q 124.609624,269.394449 124.79254,269.394449 Q 124.959774,269.394449 125.127008,269.394449 Q 125.276457,269.394449 125.425907,269.394449 Q 125.555692,269.394449 125.685477,269.394449 Q 125.793967,269.394449 125.902456,269.394449 Q 125.988285,269.394449 126.074114,269.394449 Q 126.136203,269.394449 126.198292,269.394449 Q 126.235861,269.394449 126.273429,269.394449 Q 126.286005,269.394449 126.298581,269.394449" />
      <line x1="126.298581" y1="239.394449" x2="126.298581" y2="269.394449" />
      <path d="M 122.298581,239.394449 Q 122.748018,239.394449 123.188664,239.394449 Q 123.404181,239.394449 123.619697,239.394449 Q 123.826906,239.394449 124.034116,239.394449 Q 124.230412,239.394449 124.426709,239.394449 Q 124.609624,239.394449 124.79254,239.394449 Q 124.959774,239.394449 125.127008,239.394449 Q 125.276457,239.394449 125.425907,239.394449 Q 125.555692,239.394449 125.685477,239.394449 Q 125.793967,239.394449 125.902456,239.394449 Q 125.988285,239.394449 126.074114,239.394449 Q 126.136203,239.394449 126.198292,239.394449 Q 126.235861,239.394449 126.273429,239.394449 Q 126.286005,239.394449 126.298581,239.394449" />
      <path d="M 118.298581,239.394449 L 118.323732,239.394449 L 118.398869,239.394449 L 118.523047,239.394449 L 118.694705,239.394449 L 118.911684,239.394449 L 119.171255,239.394449 L 119.470153,239.394449 L 119.804621,239.394449 L 120.170452,239.394449 L 120.563046,239.394449 L 120.977464,239.394449 L 121.408497,239.394449 L 121.850723,239.394449 L 122.298581,239.394449" />
      <path d="M 188.298581,258.0 L 188.33002,258.0 L 188.423941,258.0 L 188.579164,258.0 L 188.793736,258.0 L 189.06496,258.0 L 189.389423,258.0 L 189.763047,258.0 L 190.181132,258.0 L 190.63842,258.0 L 191.129162,258.0 L 191.647185,258.0 L 192.185976,258.0 L 192.738758,258.0 L 193.298581,258.0" />
      <path d="M 193.298581,283.0 L 193.298581,282.842805 L 193.298581,282.373198 L 193.298581,281.597083 L 193.298581,280.524222 L 193.298581,279.168105 L 193.298581,277.545787 L 193.298581,275.67767 L 193.298581,273.587245 L 193.298581,271.300802 L 193.298581,268.847093 L 193.298581,266.256977 L 193.298581,263.563023 L 193.298581,260.799112 L 193.298581,258.0" />
      <path d="M 193.298581,283.0 A 5.0,5.0 90.0 0,0 198.298581,278.0" />
      <path d="M 188.298581,278.0 A 5.0,5.0 90.0 0,0 193.298581,283.0" />
      <path d="M 193.298581,258.0 Q 193.860377,258.0 194.411185,258.0 Q 194.680581,258.0 194.949976,258.0 Q 195.208988,258.0 195.467999,258.0 Q 195.71337,258.0 195.958741,258.0 Q 196.187385,258.0 196.41603,258.0 Q 196.625072,258.0 196.834114,258.0 Q 197.020926,258.0 197.207738,258.0 Q 197.36997,258.0 197.532202,258.0 Q 197.667813,258.0 197.803425,258.0 Q 197.910711,258.0 198.017997,258.0 Q 198.095609,258.0 198.17322,258.0 Q 198.220181,258.0 198.267142,258.0 Q 198.282861,258.0 198.298581,258.0" />
      <line x1="198.298581" y1="198.0" x2="198.298581" y2="258.0" />
      <path d="M 193.298581,198.0 Q 193.860377,198.0 194.411185,198.0 Q 194.680581,198.0 194.949976,198.0 Q 195.208988,198.0 195.467999,198.0 Q 195.71337,198.0 195.958741,198.0 Q 196.187385,198.0 196.41603,198.0 Q 196.625072,198.0 196.834114,198.0 Q 197.020926,198.0 197.207738,198.0 Q 197.36997,198.0 197.532202,198.0 Q 197.667813,198.0 197.803425,198.0 Q 197.910711,198.0 198.017997,198.0 Q 198.095609,198.0 198.17322,198.0 Q 198.220181,198.0 198.267142,198.0 Q 198.282861,198.0 198.298581,198.0" />
      <path d="M 188.298581,198.0 L 188.33002,198.0 L 188.423941,198.0 L 188.579164,198.0 L 188.793736,198.0 L 189.06496,198.0 L 189.389423,198.0 L 189.763047,198.0 L 190.181132,198.0 L 190.63842,198.0 L 191.129162,198.0 L 191.647185,198.0 L 192.185976,198.0 L 192.738758,198.0 L 193.298581,198.0" />
      <path d="M 128.298581,260.683375 L 128.33002,260.683375 L 128.423941,260.683375 L 128.579164,260.683375 L 128.793736,260.683375 L 129.06496,260.683375 L 129.389423,260.683375 L 129.763047,260.683375 L 130.181132,260.683375 L 130.63842,260.683375 L 131.129162,260.683375 L 131.647185,260.683375 L 132.185976,260.683375 L 132.738758,260.683375 L 133.298581,260.683375" />
      <path d="M 133.298581,285.683375 L 133.298581,285.52618 L 133.298581,285.056573 L 133.298581,284.280458 L 133.298581,283.207597 L 133.298581,281.85148 L 133.298581,280.229162 L 133.298581,278.361045 L 133.298581,276.27062 L 133.298581,273.984177 L 133.298581,271.530469 L 133.298581,268.940352 L 133.298581,266.246399 L 133.298581,263.482487 L 133.298581,260.683375" />
      <path d="M 133.298581,285.683375 A 5.0,5.0 90.0 0,0 138.298581,280.683375" />
      <path d="M 128.298581,280.683375 A 5.0,5.0 90.0 0,0 133.298581,285.683375" />
      <path d="M 133.298581,260.683375 Q 133.860377,260.683375 134.411185,260.683375 Q 134.680581,260.683375 134.949976,260.683375 Q 135.208988,260.683375 135.467999,260.683375 Q 135.71337,260.683375 135.958741,260.683375 Q 136.187385,260.683375 136.41603,260.683375 Q 136.625072,260.683375 136.834114,260.683375 Q 137.020926,260.683375 137.207738,260.683375 Q 137.36997,260.683375 137.532202,260.683375 Q 137.667813,260.683375 137.803425,260.683375 Q 137.910711,260.683375 138.017997,260.683375 Q 138.095609,260.683375 138.17322,260.683375 Q 138.220181,260.683375 138.267142,260.683375 Q 138.282861,260.683375 138.298581,260.683375" />
      <line x1="138.298581" y1="200.683375" x2="138.298581" y2="260.683375" />
      <path d="M 133.298581,200.683375 Q 133.860377,200.683375 134.411185,200.683375 Q 134.680581,200.683375 134.949976,200.683375 Q 135.208988,200.683375 135.467999,200.683375 Q 135.71337,200.683375 135.958741,200.683375 Q 136.187385,200.683375 136.41603,200.683375 Q 136.625072,200.683375 136.834114,200.683375 Q 137.020926,200.683375 137.207738,200.683375 Q 137.36997,200.683375 137.532202,200.683375 Q 137.667813,200.683375 137.803425,200.683375 Q 137.910711,200.683375 138.017997,200.683375 Q 138.095609,200.683375 138.17322,200.683375 Q 138.220181,200.683375 138.267142,200.683375 Q 138.282861,200.683375 138.298581,200.683375" />
      <path d="M 128.298581,200.683375 L 128.33002,200.683375 L 128.423941,200.683375 L 128.579164,200.683375 L 128.793736,200.683375 L 129.06496,200.683375 L 129.389423,200.683375 L 129.763047,200.683375 L 130.181132,200.683375 L 130.63842,200.683375 L 131.129162,200.683375 L 131.647185,200.683375 L 132.185976,200.683375 L 132.738758,200.683375 L 133.298581,200.683375" />
      <line x1="155.798581" y1="39.0" x2="155.798581" y2="189.0" />
      <line x1="155.798581" y1="39.0" x2="230.798581" y2="39.0" />
      <line x1="230.798581" y1="39.0" x2="230.798581" y2="189.0" />
      <line x1="155.798581" y1="189.0" x2="230.798581" y2="189.0" />
      <circle cx="193.298581" cy="174.0" r="9.0" />
      <line x1="230.798581" y1="159.498632" x2="313.690661" y2="185.675079" />
      <path d="M 313.690661,185.675079 L 313.743511,185.50772 L 313.899411,185.014038 L 314.150543,184.218787 L 314.484314,183.161843 L 314.883989,181.896208 L 315.329524,180.485345 L 315.798581,179.0 L 316.267637,177.514655 L 316.713173,176.103792 L 317.112847,174.838157 L 317.446618,173.781213 L 317.697751,172.985962 L 317.85365,172.49228 L 317.9065,172.324921" />
      <path d="M 138.399795,179.633085 Q 138.416768,179.636387 138.433741,179.639689 Q 138.484447,179.649554 138.535153,179.659418 Q 138.618955,179.675721 138.702756,179.692024 Q 138.818599,179.71456 138.934442,179.737097 Q 139.08087,179.765583 139.227298,179.794069 Q 139.402469,179.828147 139.57764,179.862225 Q 139.779351,179.901467 139.981062,179.940708 Q 140.206777,179.984619 140.432493,180.02853 Q 140.679373,180.076559 140.926253,180.124587 Q 141.191194,180.176129 141.456135,180.227671 Q 141.735805,180.282079 142.015475,180.336486 Q 142.306356,180.393075 142.597238,180.449664 Q 143.191977,180.565365 143.798581,180.683375" />
      <path d="M 149.287882,181.268391 C 149.290658,181.268813 148.897122,181.223123 148.186959,181.143496 C 147.171618,181.029652 145.494665,180.84656 143.798581,180.683375" />
      <line x1="155.798581" y1="147.801569" x2="149.287882" y2="181.268391" />
      <path d="M 150.399795,117.94971 Q 150.416768,117.953012 150.433741,117.956314 Q 150.484447,117.966178 150.535153,117.976043 Q 150.618955,117.992346 150.702756,118.008649 Q 150.818599,118.031185 150.934442,118.053721 Q 151.08087,118.082208 151.227298,118.110694 Q 151.402469,118.144772 151.57764,118.17885 Q 151.779351,118.218092 151.981062,118.257333 Q 152.206777,118.301244 152.432493,118.345155 Q 152.679373,118.393183 152.926253,118.441212 Q 153.191194,118.492754 153.456135,118.544296 Q 153.735805,118.598704 154.015475,118.653111 Q 154.306356,118.7097 154.597238,118.766288 Q 155.191977,118.88199 155.798581,119.0" />
      <path d="M 143.798581,180.683375 Q 143.180604,180.683375 142.574715,180.683375 Q 142.278381,180.683375 141.982046,180.683375 Q 141.697133,180.683375 141.41222,180.683375 Q 141.142312,180.683375 140.872404,180.683375 Q 140.620895,180.683375 140.369387,180.683375 Q 140.13944,180.683375 139.909493,180.683375 Q 139.704,180.683375 139.498507,180.683375 Q 139.320052,180.683375 139.141597,180.683375 Q 138.992425,180.683375 138.843252,180.683375 Q 138.725237,180.683375 138.607222,180.683375 Q 138.52185,180.683375 138.436477,180.683375 Q 138.38482,180.683375 138.333163,180.683375 Q 138.315872,180.683375 138.298581,180.683375" />
      <path d="M 149.287882,181.268391 A 16.0,16.0 0.0 0,1 138.298581,195.882059" />
      <path d="M 128.298581,195.882059 A 16.0,16.0 0.0 0,1 117.298581,180.683375" />
      <path d="M 117.298581,180.683375 L 117.436477,180.683375 L 117.843252,180.683375 L 118.498507,180.683375 L 119.369387,180.683375 L 120.41222,180.683375 L 121.574715,180.683375 L 122.798581,180.683375 L 124.022446,180.683375 L 125.184941,180.683375 L 126.227775,180.683375 L 127.098654,180.683375 L 127.753909,180.683375 L 128.160684,180.683375 L 128.298581,180.683375" />
      <path d="M 128.298581,-444.0 L 128.160684,-444.0 L 127.753909,-444.0 L 127.098654,-444.0 L 126.227775,-444.0 L 125.184941,-444.0 L 124.022446,-444.0 L 122.798581,-444.0 L 121.574715,-444.0 L 120.41222,-444.0 L 119.369387,-444.0 L 118.498507,-444.0 L 117.843252,-444.0 L 117.436477,-444.0 L 117.298581,-444.0" />
      <line x1="117.298581" y1="180.683375" x2="117.298581" y2="-444.0" />
      <path d="M 213.798581,-444.0 L 213.660684,-444.0 L 213.253909,-444.0 L 212.598654,-444.0 L 211.727775,-444.0 L 210.684941,-444.0 L 209.522446,-444.0 L 208.298581,-444.0 L 207.074715,-444.0 L 205.91222,-444.0 L 204.869387,-444.0 L 203.998507,-444.0 L 203.343252,-444.0 L 202.936477,-444.0 L 202.798581,-444.0" />
      <line x1="202.798581" y1="39.0" x2="202.798581" y2="-444.0" />
      <line x1="118.649885" y1="289.282297" x2="120.783505" y2="284.096414" />
      <line x1="58.298581" y1="425.85" x2="-8.545053" y2="425.85" />
      <line x1="58.298581" y1="406.05" x2="58.29858" y2="406.05" />
      <line x1="58.29858" y1="406.05" x2="-8.545053" y2="406.05" />
      <line x1="76.398581" y1="415.95" x2="76.398581" y2="355.95" />
      <line x1="96.198581" y1="415.95" x2="96.198581" y2="415.95" />
      <line x1="96.198581" y1="415.95" x2="96.198581" y2="355.95" />
      <line x1="96.198581" y1="355.95" x2="96.198581" y2="355.95" />
      <line x1="96.198581" y1="355.95" x2="96.198581" y2="-322.361932" />
      <path d="M -8.545053,406.05 C -17.941568,406.05 -29.024593,406.05 -41.332696,406.05 C -53.639177,406.05 -67.170734,406.05 -81.420533,406.05" />
      <path d="M -8.545053,425.85 C -17.872199,425.85 -28.954166,425.85 -41.276711,425.85 C -53.598328,425.85 -67.159708,425.85 -81.420533,425.85" />
      <path d="M -110.225119,400.95 C -128.426195,400.95 -147.221609,400.95 -165.469462,400.95 C -183.723343,400.95 -201.429664,400.95 -217.615334,400.95 C -233.807033,400.95 -248.478082,400.95 -260.824201,400.95 C -273.176348,400.95 -283.203564,400.95 -290.270377,400.95 C -294.428492,400.95 -297.597674,400.95 -299.716639,400.95 C -301.837052,400.95 -302.907248,400.95 -302.9065,400.95" />
      <path d="M -317.9065,415.95 C -317.908137,413.750577 -317.416856,411.552711 -316.478906,409.563311 C -315.477449,407.430054 -313.963526,405.540369 -312.100106,404.097675 C -310.797231,403.086383 -309.325806,402.29244 -307.765261,401.75872 C -306.205068,401.223973 -304.555801,400.949464 -302.9065,400.95" />
      <path d="M -85.031715,430.95 C -104.871302,430.95 -126.106502,430.95 -147.086207,430.95 C -168.072667,430.95 -188.799413,430.95 -207.804486,430.95 C -226.818293,430.95 -244.106208,430.95 -258.450796,430.95 C -272.806096,430.95 -284.21385,430.95 -291.756526,430.95 C -295.431279,430.95 -298.22667,430.95 -300.095057,430.95 C -301.967251,430.95 -302.904399,430.95 -302.9065,430.95" />
      <path d="M -85.031715,400.95 C -110.595273,400.95 -138.33399,400.95 -164.959569,400.95 C -191.594472,400.95 -217.116238,400.95 -238.497611,400.95 C -248.470127,400.95 -257.566054,400.95 -265.54077,400.95 C -273.517894,400.95 -280.373807,400.95 -285.931316,400.95 C -291.491233,400.95 -295.752746,400.95 -298.60609,400.95 C -301.461842,400.95 -302.909424,400.95 -302.9065,400.95" />
      <path d="M -302.9065,430.95 C -305.606704,430.953679 -308.302606,430.207755 -310.616886,428.816621 C -312.829078,427.494886 -314.690055,425.587613 -315.957521,423.344083 C -317.230452,421.10365 -317.909874,418.52696 -317.9065,415.95" />
      <path d="M -302.90628,400.95 L -302.9065,400.95" />
      <path d="M 126.298581,269.394449 C 126.298581,271.901885 126.298581,274.399113 126.298581,276.33933 C 126.298581,276.989557 126.298581,277.571835 126.298581,278.086164 C 126.298581,279.574511 126.298581,280.400374 126.298581,280.394449" />
      <path d="M 118.298581,269.394449 C 118.298581,271.901885 118.298581,274.399113 118.298581,276.33933 C 118.298581,276.989557 118.298581,277.571835 118.298581,278.086164 C 118.298581,279.574511 118.298581,280.400374 118.298581,280.394449" />
      <line x1="118.298581" y1="239.394449" x2="118.298581" y2="269.394449" />
      <path d="M 126.298581,239.394449 C 126.298581,237.781539 126.298581,236.16977 126.298581,234.710875 C 126.298581,233.19873 126.298581,231.853141 126.298581,230.809694 C 126.298581,230.035141 126.298581,229.425692 126.298581,229.015811 C 126.298581,228.603129 126.298581,228.396008 126.298581,228.394449" />
      <path d="M 118.298581,239.394449 C 118.298581,237.781539 118.298581,236.16977 118.298581,234.710875 C 118.298581,233.19873 118.298581,231.853141 118.298581,230.809694 C 118.298581,230.035141 118.298581,229.425692 118.298581,229.015811 C 118.298581,228.603129 118.298581,228.396008 118.298581,228.394449" />
      <path d="M 122.298581,224.394449 C 121.691257,224.393907 121.083969,224.534698 120.538821,224.802333 C 119.993223,225.069049 119.509765,225.462609 119.137961,225.942821 C 118.596739,226.637044 118.296426,227.514186 118.298581,228.394449" />
      <path d="M 122.298581,224.394449 C 122.895932,224.393942 123.493256,224.530069 124.031422,224.789271 C 124.570003,225.047611 125.049426,225.429026 125.422173,225.895816 C 125.986378,226.597374 126.300933,227.494171 126.298581,228.394449" />
      <path d="M 198.298581,258.0 C 198.298581,260.880169 198.298581,263.758441 198.298581,266.373195 C 198.298581,268.846758 198.298581,271.082334 198.298581,272.897907 C 198.298581,274.523059 198.298581,275.812464 198.298581,276.680985 C 198.298581,277.551482 198.298581,278.001095 198.298581,278.0" />
      <path d="M 188.298581,258.0 C 188.298581,260.880169 188.298581,263.758441 188.298581,266.373195 C 188.298581,268.846758 188.298581,271.082334 188.298581,272.897907 C 188.298581,274.523059 188.298581,275.812464 188.298581,276.680985 C 188.298581,277.551482 188.298581,278.001095 188.298581,278.0" />
      <line x1="188.298581" y1="198.0" x2="188.298581" y2="258.0" />
      <path d="M 198.298581,198.0 C 198.298581,194.887672 198.298581,191.778209 198.298581,189.0" />
      <path d="M 198.298581,181.483315 C 198.298581,180.116017 198.298581,179.117181 198.298581,178.552551 C 198.298581,178.184868 198.298581,178.000684 198.298581,178.0" />
      <path d="M 188.298581,198.0 C 188.298581,194.887672 188.298581,191.778209 188.298581,189.0" />
      <path d="M 188.298581,181.483315 C 188.298581,180.116017 188.298581,179.117181 188.298581,178.552551 C 188.298581,178.184868 188.298581,178.000684 188.298581,178.0" />
      <path d="M 193.298581,173.0 C 192.565596,172.999414 191.832648,173.163276 191.169681,173.475859 C 190.506242,173.787436 189.912785,174.247733 189.446014,174.81288 C 188.708648,175.699137 188.295351,176.847112 188.298581,178.0" />
      <path d="M 188.298581,178.001191 L 188.298581,178.0" />
      <path d="M 193.298581,173.0 C 194.043903,172.999372 194.789192,173.168896 195.460934,173.491752 C 196.133191,173.813537 196.731901,174.288654 197.197941,174.870306 C 197.906376,175.748219 198.301549,176.871908 198.298581,178.0" />
      <path d="M 138.298581,260.683375 C 138.298581,263.563544 138.298581,266.441816 138.298581,269.05657 C 138.298581,271.530134 138.298581,273.76571 138.298581,275.581281 C 138.298581,277.206434 138.298581,278.495839 138.298581,279.36436 C 138.298581,280.234857 138.298581,280.68447 138.298581,280.683375" />
      <path d="M 128.298581,260.683375 C 128.298581,263.563544 128.298581,266.441816 128.298581,269.05657 C 128.298581,271.530134 128.298581,273.76571 128.298581,275.581281 C 128.298581,277.206434 128.298581,278.495839 128.298581,279.36436 C 128.298581,280.234857 128.298581,280.68447 128.298581,280.683375" />
      <line x1="128.298581" y1="200.683375" x2="128.298581" y2="260.683375" />
      <path d="M 138.298581,200.683375 C 138.298581,197.646013 138.298581,194.611124 138.298581,191.884589 C 138.298581,189.532737 138.298581,187.411584 138.298581,185.681112 C 138.298581,184.087604 138.298581,182.824855 138.298581,181.974484 C 138.298581,181.122217 138.298581,180.682327 138.298581,180.683375" />
      <path d="M 128.298581,200.683375 C 128.298581,197.646013 128.298581,194.611124 128.298581,191.884589 C 128.298581,189.532737 128.298581,187.411584 128.298581,185.681112 C 128.298581,184.087604 128.298581,182.824855 128.298581,181.974484 C 128.298581,181.122217 128.298581,180.682327 128.298581,180.683375" />
      <path d="M 133.298581,175.683375 C 132.539426,175.682699 131.780316,175.858687 131.098881,176.19323 C 130.416884,176.526625 129.812562,177.018576 129.347806,177.61884 C 128.671279,178.486619 128.295888,179.583047 128.298581,180.683375" />
      <path d="M 133.298581,175.683375 C 134.043903,175.682747 134.789192,175.852272 135.460934,176.175127 C 136.133191,176.496912 136.731901,176.972029 137.197941,177.553681 C 137.906376,178.431594 138.301549,179.555283 138.298581,180.683375" />
      <line x1="230.798581" y1="144.817157" x2="317.9065" y2="172.324921" />
      <line x1="150.399795" y1="117.94971" x2="138.399795" y2="179.633085" />
      <path d="M 138.298581,180.683375 C 138.299126,181.416516 138.135366,182.149138 137.822716,182.812272 C 137.467593,183.571539 136.907254,184.24788 136.22053,184.740725 C 135.534535,185.235951 134.723441,185.550491 133.886264,185.648691 C 133.049295,185.748639 132.187183,185.632136 131.404534,185.310736 C 130.621733,184.99182 129.918987,184.464975 129.396429,183.809588 C 128.689724,182.932198 128.295628,181.809979 128.298581,180.683375" />
      <line x1="128.298581" y1="180.683375" x2="128.298581" y2="-444.0" />
      <line x1="213.798581" y1="39.0" x2="213.798581" y2="-444.0" />
    </g>
    <g fill="none" stroke="rgb(106,113,128)" stroke-width="0.175" id="Hidden" stroke-dasharray="2.1 0.525">
      <line x1="43.298581" y1="256.0" x2="218.298581" y2="256.0" />
      <line x1="43.298581" y1="256.0" x2="96.198581" y2="256.0" />
      <line x1="118.298581" y1="256.0" x2="126.298581" y2="256.0" />
      <line x1="128.298581" y1="256.0" x2="138.298581" y2="256.0" />
      <line x1="188.298581" y1="256.0" x2="198.298581" y2="256.0" />
      <line x1="54.548581" y1="441.0" x2="43.298581" y2="441.0" />
      <line x1="54.548581" y1="406.0" x2="54.548581" y2="441.0" />
      <line x1="43.298581" y1="441.0" x2="43.298581" y2="256.0" />
      <line x1="62.048581" y1="406.0" x2="54.548581" y2="406.0" />
      <line x1="62.048581" y1="406.0" x2="62.048581" y2="441.0" />
      <line x1="218.298581" y1="256.0" x2="218.298581" y2="311.0" />
      <line x1="82.548581" y1="441.0" x2="62.048581" y2="441.0" />
      <line x1="218.298581" y1="311.0" x2="103.298581" y2="441.0" />
      <line x1="82.548581" y1="406.0" x2="82.548581" y2="441.0" />
      <line x1="103.298581" y1="441.0" x2="90.048581" y2="441.0" />
      <line x1="90.048581" y1="406.0" x2="82.548581" y2="406.0" />
      <line x1="90.048581" y1="406.0" x2="90.048581" y2="441.0" />
      <circle cx="72.298581" cy="395.0" r="4.25" />
      <circle cx="128.298581" cy="346.0" r="18.0" />
      <circle cx="128.298581" cy="284.0" r="11.0" />
      <circle cx="193.298581" cy="284.0" r="11.0" />
      <line x1="54.548581" y1="441.0" x2="43.298581" y2="441.0" />
      <line x1="54.548581" y1="406.05" x2="54.548581" y2="425.85" />
      <line x1="43.298581" y1="441.0" x2="43.298581" y2="386.0" />
      <line x1="43.298581" y1="306.0" x2="43.298581" y2="256.0" />
      <line x1="62.048581" y1="406.787713" x2="62.048581" y2="425.112287" />
      <line x1="75.298581" y1="441.0" x2="69.298581" y2="441.0" />
      <line x1="82.548581" y1="406.0" x2="82.548581" y2="425.112287" />
      <line x1="103.298581" y1="441.0" x2="90.048581" y2="441.0" />
      <line x1="90.048581" y1="406.0" x2="82.548581" y2="406.0" />
      <line x1="90.048581" y1="406.0" x2="90.048581" y2="425.112287" />
      <circle cx="72.298581" cy="395.0" r="4.25" />
      <circle cx="128.298581" cy="284.0" r="11.0" />
      <circle cx="193.298581" cy="284.0" r="11.0" />
      <line x1="91.590232" y1="256.0" x2="-7.400149" y2="256.0" />
      <line x1="-7.400149" y1="256.0" x2="-7.400149" y2="306.0" />
      <line x1="91.590232" y1="306.0" x2="-7.400149" y2="306.0" />
      <line x1="91.590232" y1="306.0" x2="91.590232" y2="256.0" />
      <line x1="45.40221" y1="256.0" x2="-42.041165" y2="256.0" />
      <line x1="-7.400149" y1="256.0" x2="-42.041165" y2="256.0" />
      <line x1="91.590232" y1="256.0" x2="45.40221" y2="256.0" />
      <line x1="-7.400149" y1="306.0" x2="-42.041165" y2="306.0" />
      <line x1="-42.041165" y1="256.0" x2="-42.041165" y2="306.0" />
      <line x1="45.40221" y1="306.0" x2="-42.041165" y2="306.0" />
      <line x1="91.590232" y1="306.0" x2="45.40221" y2="306.0" />
      <line x1="45.40221" y1="306.0" x2="45.40221" y2="256.0" />
      <line x1="88.12613" y1="259.0" x2="48.866312" y2="259.0" />
      <line x1="48.866312" y1="303.0" x2="48.866312" y2="259.0" />
      <line x1="88.12613" y1="303.0" x2="48.866312" y2="303.0" />
      <line x1="88.12613" y1="303.0" x2="88.12613" y2="259.0" />
      <line x1="48.866312" y1="259.0" x2="-37.943089" y2="259.0" />
      <line x1="-8.498225" y1="259.0" x2="-37.943089" y2="259.0" />
      <line x1="88.12613" y1="259.0" x2="-8.498225" y2="259.0" />
      <line x1="-37.943089" y1="259.0" x2="-37.943089" y2="303.0" />
      <line x1="48.866312" y1="303.0" x2="-37.943089" y2="303.0" />
      <line x1="-8.498225" y1="303.0" x2="-37.943089" y2="303.0" />
      <line x1="88.12613" y1="303.0" x2="-8.498225" y2="303.0" />
      <line x1="-8.498225" y1="259.0" x2="-8.498225" y2="303.0" />
      <line x1="45.40221" y1="256.0" x2="-42.041165" y2="256.0" />
      <line x1="45.40221" y1="306.0" x2="-42.041165" y2="306.0" />
      <line x1="45.40221" y1="256.0" x2="45.40221" y2="306.0" />
      <line x1="91.590232" y1="256.0" x2="76.398581" y2="256.0" />
      <line x1="91.590232" y1="256.0" x2="45.40221" y2="256.0" />
      <line x1="91.590232" y1="306.0" x2="76.398581" y2="306.0" />
      <line x1="91.590232" y1="306.0" x2="45.40221" y2="306.0" />
      <line x1="91.590232" y1="256.0" x2="91.590232" y2="306.0" />
      <line x1="88.12613" y1="259.0" x2="48.866312" y2="259.0" />
      <line x1="48.866312" y1="259.0" x2="48.866312" y2="303.0" />
      <line x1="88.12613" y1="303.0" x2="48.866312" y2="303.0" />
      <line x1="88.12613" y1="259.0" x2="88.12613" y2="303.0" />
      <line x1="88.12613" y1="259.0" x2="-8.498225" y2="259.0" />
      <line x1="-37.943089" y1="259.0" x2="-8.498225" y2="259.0" />
      <line x1="48.866312" y1="259.0" x2="-37.943089" y2="259.0" />
      <line x1="-37.943089" y1="259.0" x2="-37.943089" y2="303.0" />
      <line x1="48.866312" y1="303.0" x2="-37.943089" y2="303.0" />
      <line x1="88.12613" y1="303.0" x2="-8.498225" y2="303.0" />
      <line x1="-37.943089" y1="303.0" x2="-8.498225" y2="303.0" />
      <line x1="-8.498225" y1="259.0" x2="-8.498225" y2="303.0" />
      <circle cx="193.298581" cy="284.0" r="25.0" />
      <circle cx="193.298581" cy="284.0" r="25.0" />
      <circle cx="193.298581" cy="284.0" r="11.0" />
      <circle cx="193.298581" cy="284.0" r="11.0" />
      <path d="M 193.298581,259.0 A 25.0,25.0 -90.0 0,1 198.298581,259.505103" />
      <path d="M 188.298581,259.505103 A 25.0,25.0 -90.0 0,1 193.298581,259.0" />
      <circle cx="193.298581" cy="284.0" r="25.0" />
      <path d="M 193.298581,273.0 A 11.0,11.0 -90.0 0,1 198.298581,274.202041" />
      <path d="M 188.298581,274.202041 A 11.0,11.0 -90.0 0,1 193.298581,273.0" />
      <circle cx="193.298581" cy="284.0" r="11.0" />
      <circle cx="128.298581" cy="284.0" r="25.0" />
      <circle cx="128.298581" cy="284.0" r="25.0" />
      <circle cx="128.298581" cy="284.0" r="11.0" />
      <circle cx="128.298581" cy="284.0" r="11.0" />
      <path d="M 128.298581,259.0 A 25.0,25.0 -90.0 0,1 138.298581,261.087122" />
      <path d="M 118.298581,261.087122 A 25.0,25.0 -90.0 0,1 126.298581,259.080128" />
      <circle cx="128.298581" cy="284.0" r="25.0" />
      <path d="M 128.298581,273.0 A 11.0,11.0 -90.0 0,1 138.298581,279.417424" />
      <circle cx="128.298581" cy="284.0" r="11.0" />
      <line x1="43.298581" y1="386.0" x2="43.298581" y2="441.0" />
      <line x1="43.298581" y1="386.0" x2="43.298581" y2="441.0" />
      <line x1="97.298581" y1="441.0" x2="103.298581" y2="441.0" />
      <line x1="97.298581" y1="441.0" x2="97.298581" y2="404.0" />
      <line x1="103.298581" y1="386.0" x2="103.298581" y2="441.0" />
      <line x1="75.298581" y1="404.0" x2="97.298581" y2="404.0" />
      <line x1="43.298581" y1="386.0" x2="103.298581" y2="386.0" />
      <line x1="75.298581" y1="441.0" x2="75.298581" y2="404.0" />
      <line x1="69.298581" y1="441.0" x2="75.298581" y2="441.0" />
      <line x1="43.298581" y1="441.0" x2="47.298581" y2="441.0" />
      <line x1="69.298581" y1="441.0" x2="69.298581" y2="404.0" />
      <line x1="47.298581" y1="441.0" x2="47.298581" y2="404.0" />
      <line x1="47.298581" y1="404.0" x2="69.298581" y2="404.0" />
      <circle cx="72.298581" cy="395.0" r="4.25" />
      <line x1="43.298581" y1="441.0" x2="47.298581" y2="441.0" />
      <line x1="97.298581" y1="441.0" x2="103.298581" y2="441.0" />
      <line x1="97.298581" y1="441.0" x2="97.298581" y2="404.0" />
      <line x1="103.298581" y1="386.0" x2="103.298581" y2="441.0" />
      <line x1="75.298581" y1="404.0" x2="97.298581" y2="404.0" />
      <line x1="43.298581" y1="386.0" x2="103.298581" y2="386.0" />
      <line x1="75.298581" y1="441.0" x2="75.298581" y2="404.0" />
      <line x1="69.298581" y1="441.0" x2="75.298581" y2="441.0" />
      <line x1="69.298581" y1="441.0" x2="69.298581" y2="404.0" />
      <line x1="47.298581" y1="441.0" x2="47.298581" y2="404.0" />
      <line x1="47.298581" y1="404.0" x2="69.298581" y2="404.0" />
      <circle cx="72.298581" cy="395.0" r="4.25" />
      <line x1="43.298581" y1="406.05" x2="43.298581" y2="425.85" />
      <line x1="43.298581" y1="386.0" x2="43.298581" y2="441.0" />
      <line x1="97.298581" y1="441.0" x2="101.298581" y2="441.0" />
      <line x1="76.398581" y1="404.0" x2="96.198581" y2="404.0" />
      <line x1="76.398581" y1="386.0" x2="96.198581" y2="386.0" />
      <line x1="69.298581" y1="441.0" x2="75.298581" y2="441.0" />
      <line x1="45.298581" y1="441.0" x2="47.298581" y2="441.0" />
      <line x1="47.298581" y1="425.85" x2="47.298581" y2="406.05" />
      <circle cx="72.298581" cy="395.0" r="4.25" />
      <line x1="43.298581" y1="441.0" x2="47.298581" y2="441.0" />
      <line x1="97.298581" y1="441.0" x2="103.298581" y2="441.0" />
      <line x1="97.298581" y1="441.0" x2="97.298581" y2="404.0" />
      <line x1="103.298581" y1="386.0" x2="103.298581" y2="441.0" />
      <line x1="75.298581" y1="404.0" x2="97.298581" y2="404.0" />
      <line x1="43.298581" y1="386.0" x2="103.298581" y2="386.0" />
      <line x1="75.298581" y1="441.0" x2="75.298581" y2="404.0" />
      <line x1="69.298581" y1="441.0" x2="75.298581" y2="441.0" />
      <line x1="69.298581" y1="441.0" x2="69.298581" y2="404.0" />
      <line x1="47.298581" y1="441.0" x2="47.298581" y2="404.0" />
      <line x1="47.298581" y1="404.0" x2="69.298581" y2="404.0" />
      <circle cx="72.298581" cy="395.0" r="4.25" />
      <line x1="36.458835" y1="256.0" x2="36.458835" y2="306.0" />
      <line x1="36.458835" y1="306.0" x2="27.798581" y2="306.0" />
      <line x1="27.798581" y1="256.0" x2="27.798581" y2="306.0" />
      <line x1="36.458835" y1="256.0" x2="27.798581" y2="256.0" />
      <line x1="-41.041165" y1="256.0" x2="-41.041165" y2="306.0" />
      <line x1="-41.041165" y1="306.0" x2="-49.701419" y2="306.0" />
      <line x1="-49.701419" y1="256.0" x2="-49.701419" y2="306.0" />
      <line x1="-41.041165" y1="256.0" x2="-49.701419" y2="256.0" />
      <line x1="36.458835" y1="256.0" x2="-41.041165" y2="256.0" />
      <line x1="36.458835" y1="306.0" x2="-41.041165" y2="306.0" />
      <line x1="27.798581" y1="256.0" x2="-49.701419" y2="256.0" />
      <line x1="27.798581" y1="306.0" x2="-49.701419" y2="306.0" />
      <line x1="27.798581" y1="256.0" x2="27.798581" y2="306.0" />
      <line x1="27.798581" y1="306.0" x2="36.458835" y2="306.0" />
      <line x1="36.458835" y1="256.0" x2="36.458835" y2="306.0" />
      <line x1="27.798581" y1="256.0" x2="36.458835" y2="256.0" />
      <line x1="-42.041165" y1="306.0" x2="-41.041165" y2="306.0" />
      <line x1="-41.041165" y1="256.0" x2="-41.041165" y2="306.0" />
      <line x1="-42.041165" y1="256.0" x2="-41.041165" y2="256.0" />
      <line x1="27.798581" y1="256.0" x2="-49.701419" y2="256.0" />
      <line x1="27.798581" y1="306.0" x2="-49.701419" y2="306.0" />
      <line x1="36.458835" y1="256.0" x2="-41.041165" y2="256.0" />
      <line x1="36.458835" y1="306.0" x2="-41.041165" y2="306.0" />
      <line x1="45.298581" y1="441.0" x2="45.298581" y2="444.0" />
      <line x1="45.298581" y1="441.0" x2="69.298581" y2="441.0" />
      <line x1="69.298581" y1="441.0" x2="75.298581" y2="441.0" />
      <line x1="75.298581" y1="441.0" x2="101.298581" y2="441.0" />
      <line x1="69.298581" y1="441.0" x2="75.298581" y2="441.0" />
      <line x1="69.298581" y1="398.010399" x2="69.298581" y2="402.416198" />
      <line x1="69.298581" y1="398.010399" x2="69.298581" y2="441.0" />
      <path d="M 69.298581,398.010399 A 4.25,4.25 134.90087215597262 0,0 75.298581,398.010399" />
      <path d="M 69.298581,398.010399 A 4.25,4.25 134.90087215597262 0,0 75.298581,398.010399" />
      <line x1="75.298581" y1="398.010399" x2="75.298581" y2="441.0" />
      <line x1="75.298581" y1="398.010399" x2="75.298581" y2="402.416198" />
      <line x1="101.298581" y1="441.0" x2="101.298581" y2="444.0" />
      <line x1="75.298581" y1="398.010399" x2="75.298581" y2="441.0" />
      <line x1="75.298581" y1="398.010399" x2="75.298581" y2="441.0" />
      <path d="M 75.298581,398.010399 A 4.25,4.25 45.0991278440274 0,1 69.298581,398.010399" />
      <path d="M 75.298581,398.010399 A 4.25,4.25 45.0991278440274 0,1 69.298581,398.010399" />
      <line x1="69.298581" y1="398.010399" x2="69.298581" y2="441.0" />
      <line x1="69.298581" y1="398.010399" x2="69.298581" y2="441.0" />
      <line x1="45.298581" y1="444.0" x2="101.298581" y2="444.0" />
      <line x1="69.298581" y1="388.0" x2="69.298581" y2="391.989601" />
      <line x1="69.298581" y1="388.0" x2="75.298581" y2="388.0" />
      <line x1="75.298581" y1="388.0" x2="75.298581" y2="391.989601" />
      <path d="M 75.298581,391.989601 A 4.25,4.25 90.0 0,0 69.298581,391.989601" />
      <path d="M 75.298581,391.989601 A 4.25,4.25 90.0 0,0 69.298581,391.989601" />
      <line x1="75.298581" y1="388.0" x2="75.298581" y2="391.989601" />
      <line x1="69.298581" y1="388.0" x2="69.298581" y2="391.989601" />
      <line x1="69.298581" y1="388.0" x2="75.298581" y2="388.0" />
      <line x1="69.298581" y1="388.0" x2="69.298581" y2="391.989601" />
      <line x1="69.298581" y1="388.0" x2="75.298581" y2="388.0" />
      <line x1="75.298581" y1="388.0" x2="75.298581" y2="391.989601" />
      <path d="M 75.298581,391.989601 A 4.25,4.25 90.0 0,0 69.298581,391.989601" />
      <path d="M 75.298581,391.989601 A 4.25,4.25 90.0 0,0 69.298581,391.989601" />
      <line x1="75.298581" y1="388.0" x2="75.298581" y2="391.989601" />
      <line x1="69.298581" y1="388.0" x2="69.298581" y2="391.989601" />
      <line x1="69.298581" y1="388.0" x2="75.298581" y2="388.0" />
      <circle cx="72.298581" cy="395.0" r="8.0" />
      <path d="M 76.398581,401.869498 A 8.0,8.0 90.0 0,0 76.398581,388.130502" />
      <circle cx="72.298581" cy="395.0" r="4.0" />
      <circle cx="72.298581" cy="395.0" r="4.0" />
      <path d="M 86.298581,406.05 A 9.9,6.700653556737254 -90.0 0,1 92.999234,415.95" />
      <path d="M -19.528287,415.95 A 9.9,6.700653556737254 -90.0 0,1 -26.228941,425.85" />
      <path d="M -26.228941,425.85 A 9.900000000000004,6.700653556737256 -90.0 0,1 -26.228941,406.05" />
      <path d="M -26.228941,406.05 A 9.9,6.700653556737254 -90.0 0,1 -19.528287,415.95" />
      <path d="M 92.999234,415.95 A 9.9,6.700653556737254 -90.0 0,1 86.298581,425.85" />
      <path d="M 86.298581,425.85 L 84.364265,425.659193 L 82.504511,425.094126 L 80.791006,424.176581 L 79.289802,422.941926 L 78.058765,421.437754 L 77.145348,419.722046 L 76.58476,417.860937 L 76.398609,415.926167 L 76.594073,413.992316 L 77.163615,412.133928 L 78.085283,410.422638 L 79.323547,408.92441 L 80.830679,407.696998 L 82.548581,406.787713" />
      <path d="M 64.3324,423.798759 L 64.832336,423.387745 L 65.304347,422.944943 L 65.746419,422.472247 L 66.15666,421.971677 L 66.533317,421.445372 L 66.874782,420.895581 L 67.179594,420.324654 L 67.446452,419.73503 L 67.674213,419.129231 L 67.861906,418.509844 L 68.008728,417.879518 L 68.114051,417.240945 L 68.177426,416.596855 L 68.198581,415.95" />
      <path d="M 60.650803,410.917772 A 14.626931413496921,9.9 0.0 0,0 64.3324,423.798759" />
      <path d="M 60.650803,410.917772 L 60.152901,410.670305 L 59.665953,410.427365 L 59.190376,410.189161 L 58.726578,409.955896 L 58.274957,409.727771 L 57.835901,409.504981 L 57.409785,409.287718 L 56.996975,409.076167 L 56.597825,408.87051 L 56.212677,408.670924 L 55.841862,408.477579 L 55.485697,408.290641 L 55.144488,408.110271 L 54.818528,407.936623" />
      <path d="M 54.818528,407.936623 C 55.639585,407.424291 56.551083,407.019801 57.509602,406.732357 C 58.841083,406.329645 60.250887,406.156376 61.582641,406.090761 C 62.215365,406.061407 62.827087,406.04782 63.417808,406.05" />
      <path d="M 63.417808,406.05 C 64.606744,406.05133 65.703566,406.083515 66.664637,406.090985 C 67.727612,406.10287 68.640995,406.082182 69.338555,406.060531 C 69.546491,406.054183 69.732139,406.050672 69.895497,406.05" />
      <path d="M 69.895497,406.05 C 70.325423,406.054206 70.599264,406.070705 70.505864,406.29901" />
      <path d="M 70.505864,406.29901 C 70.465178,406.395779 70.354277,406.542771 70.173164,406.739987 C 69.876328,407.066627 69.408815,407.54145 68.938031,408.075139 C 68.193677,408.912805 67.445947,409.881793 66.811838,410.896838" />
      <path d="M 68.198581,415.95 L 68.191335,415.571295 L 68.169607,415.193144 L 68.13343,414.816101 L 68.082857,414.440718 L 68.017961,414.067544 L 67.938838,413.697125 L 67.845602,413.330005 L 67.738392,412.96672 L 67.617363,412.607802 L 67.482693,412.253776 L 67.334579,411.905161 L 67.173238,411.562467 L 66.998906,411.226195 L 66.811838,410.896838" />
      <path d="M 118.298581,252.184173 A 9.9,0.5875238533849535 -157.63633342981328 0,1 126.298581,255.462055" />
      <path d="M 127.493629,256.0 A 9.9,0.5875238533849535 -157.63633342981328 0,1 131.453977,258.16124" />
      <path d="M 131.453977,258.16124 A 9.9,0.5875238533849535 -157.63633342981328 0,1 118.298581,253.326842" />
      <line x1="49.143184" y1="406.183208" x2="110.932849" y2="256.0" />
      <path d="M 52.383597,408.0113 A 9.9,0.5875238533849535 -157.63633342981328 0,1 49.143184,406.183208" />
      <path d="M 66.811838,410.896838 C 66.415559,410.232596 65.870203,409.476622 65.048374,408.707742 C 64.72937,408.407025 64.361182,408.110199 63.943809,407.817264 C 63.404608,407.442774 62.770317,407.082966 62.048581,406.787713" />
      <path d="M 58.298476,406.05 L 58.176115,406.050757" />
      <path d="M 57.553556,406.078073 Q 57.310054,406.096535 57.074523,406.125964" />
      <path d="M 57.013315,406.133784 L 57.008066,406.134473" />
      <path d="M 56.537004,406.207985 Q 56.340043,406.243647 56.149109,406.286162" />
      <path d="M 56.042798,406.310423 Q 55.597722,406.415101 55.184909,406.552391" />
      <path d="M 55.073504,406.590038 L 55.01436,406.610627" />
      <path d="M 54.743978,406.710151 C 53.856499,407.052818 53.083255,407.491285 52.383597,408.0113" />
      <path d="M 49.143184,406.183208 A 9.9,0.5875238533849535 -157.63633342981328 0,1 54.818528,407.936623" />
      <path d="M 52.383597,408.0113 Q 52.601316,407.849123 52.827559,407.699065" />
      <line x1="60.650803" y1="410.917772" x2="52.827559" y2="407.699065" />
      <path d="M 58.298581,425.85 A 9.9,9.9 90.0 0,0 64.3324,423.798759" />
      <path d="M 52.827559,407.699065 A 9.9,9.9 90.0 0,0 58.298581,425.85" />
      <path d="M 58.298581,406.05 A 9.900000000000004,9.900000000000004 -90.0 0,1 58.298581,425.85" />
      <path d="M 48.398581,415.95 L 48.46083,414.841552 L 48.646794,413.747043 L 48.954135,412.680238 L 49.378989,411.654551 L 49.916011,410.682883 L 50.558448,409.777452 L 51.298223,408.949644 L 52.126031,408.209869 L 53.031462,407.567431 L 54.00313,407.030409 L 55.028816,406.605556 L 56.095622,406.298214 L 57.19013,406.112249 L 58.298579,406.05" />
      <path d="M 58.29858,425.85 L 57.190132,425.787751 L 56.095623,425.601786 L 55.028818,425.294445 L 54.003131,424.869592 L 53.031463,424.33257 L 52.126031,423.690132 L 51.298223,422.950357 L 50.558449,422.122549 L 49.916011,421.217117 L 49.378989,420.245449 L 48.954136,419.219763 L 48.646794,418.152957 L 48.46083,417.058448 L 48.398581,415.95" />
      <line x1="58.298581" y1="425.85" x2="58.298581" y2="406.05" />
      <path d="M -16.306739,415.95 A 9.9,7.761686852658473 90.0 0,1 -8.545053,406.05" />
      <path d="M -8.545053,425.85 A 9.9,7.761686852658473 90.0 0,1 -16.306739,415.95" />
      <path d="M 76.398581,415.950001 L 76.46083,414.841552 L 76.646794,413.747043 L 76.954135,412.680238 L 77.378989,411.654551 L 77.916011,410.682883 L 78.558449,409.777451 L 79.298223,408.949643 L 80.126031,408.209868 L 81.031463,407.567431 L 82.003131,407.030408 L 83.028818,406.605555 L 84.095623,406.298214 L 85.190132,406.112249 L 86.298581,406.05" />
      <path d="M 86.298581,406.05 L 87.407029,406.112249 L 88.501538,406.298214 L 89.568343,406.605555 L 90.59403,407.030408 L 91.565698,407.567431 L 92.47113,408.209868 L 93.298938,408.949643 L 94.038712,409.777451 L 94.68115,410.682883 L 95.218173,411.654551 L 95.643026,412.680238 L 95.950367,413.747043 L 96.136332,414.841552 L 96.198581,415.950001" />
      <path d="M 86.298581,406.05 A 9.900000000000004,9.900000000000004 -90.0 0,1 86.298581,425.85" />
      <line x1="86.298581" y1="425.85" x2="86.298581" y2="406.05" />
      <line x1="76.398581" y1="415.95" x2="96.198581" y2="415.95" />
      <path d="M 76.398581,355.950001 L 76.646793,355.215682 L 77.378987,354.518185 L 78.558447,353.892485 L 80.126029,353.369957 L 82.003129,352.976803 L 84.095621,352.732738 L 86.298579,352.65 L 88.501536,352.732738 L 90.594029,352.976803 L 92.471129,353.369956 L 94.038712,353.892484 L 95.218172,354.518184 L 95.950367,355.215681 L 96.198581,355.95" />
      <path d="M 76.398581,-322.361932 L 76.646794,-322.361932 L 77.378989,-322.361932 L 78.558449,-322.361932 L 80.126032,-322.361932 L 82.003132,-322.361932 L 84.095623,-322.361932 L 86.298581,-322.361932 L 88.501538,-322.361932 L 90.59403,-322.361932 L 92.47113,-322.361932 L 94.038712,-322.361932 L 95.218172,-322.361932 L 95.950367,-322.361932 L 96.198581,-322.361932" />
      <line x1="76.398581" y1="355.95" x2="96.198581" y2="355.95" />
      <path d="M -107.708629,415.95 A 15.0,2.51648923746149 90.0 0,0 -110.225119,400.95" />
      <path d="M -110.225119,400.95 A 15.0,2.51648923746149 90.0 0,0 -110.225119,430.95" />
      <path d="M -110.225119,430.95 A 15.0,2.51648923746149 90.0 0,0 -107.708629,415.95" />
      <path d="M -85.031715,430.95 A 15.0,4.806798616408933 90.0 0,1 -85.031715,400.95" />
      <path d="M 126.298581,269.394449 L 126.198292,269.394449 L 125.902456,269.394449 L 125.425907,269.394449 L 124.79254,269.394449 L 124.034116,269.394449 L 123.188664,269.394449 L 122.298581,269.394449 L 121.408497,269.394449 L 120.563046,269.394449 L 119.804621,269.394449 L 119.171255,269.394449 L 118.694705,269.394449 L 118.398869,269.394449 L 118.298581,269.394449" />
      <path d="M 126.298581,280.394449 A 4.0,4.0 90.0 0,0 118.298581,280.394449" />
      <path d="M 126.298581,239.394449 L 126.198292,239.394449 L 125.902456,239.394449 L 125.425907,239.394449 L 124.79254,239.394449 L 124.034116,239.394449 L 123.188664,239.394449 L 122.298581,239.394449 L 121.408497,239.394449 L 120.563046,239.394449 L 119.804621,239.394449 L 119.171255,239.394449 L 118.694705,239.394449 L 118.398869,239.394449 L 118.298581,239.394449" />
      <path d="M 122.298581,269.394449 L 121.850723,269.394449 L 121.408497,269.394449 L 120.977464,269.394449 L 120.563046,269.394449 L 120.170452,269.394449 L 119.804621,269.394449 L 119.470153,269.394449 L 119.171255,269.394449 L 118.911684,269.394449 L 118.694705,269.394449 L 118.523047,269.394449 L 118.398869,269.394449 L 118.323732,269.394449 L 118.298581,269.394449" />
      <path d="M 118.298581,269.394449 L 118.398869,269.394449 L 118.694705,269.394449 L 119.171255,269.394449 L 119.804621,269.394449 L 120.563046,269.394449 L 121.408497,269.394449 L 122.298581,269.394449 L 123.188664,269.394449 L 124.034116,269.394449 L 124.79254,269.394449 L 125.425907,269.394449 L 125.902456,269.394449 L 126.198292,269.394449 L 126.298581,269.394449" />
      <path d="M 126.298581,269.394449 Q 126.286005,269.394449 126.273429,269.394449 Q 126.235861,269.394449 126.198292,269.394449 Q 126.136203,269.394449 126.074114,269.394449 Q 125.988285,269.394449 125.902456,269.394449 Q 125.793967,269.394449 125.685477,269.394449 Q 125.555692,269.394449 125.425907,269.394449 Q 125.276457,269.394449 125.127008,269.394449 Q 124.959774,269.394449 124.79254,269.394449 Q 124.609624,269.394449 124.426709,269.394449 Q 124.230412,269.394449 124.034116,269.394449 Q 123.826906,269.394449 123.619697,269.394449 Q 123.404181,269.394449 123.188664,269.394449 Q 122.748018,269.394449 122.298581,269.394449" />
      <path d="M 122.298581,269.394449 L 122.298581,271.073916 L 122.298581,272.732263 L 122.298581,274.348635 L 122.298581,275.902705 L 122.298581,277.37493 L 122.298581,278.746796 L 122.298581,280.00105 L 122.298581,281.121921 L 122.298581,282.095312 L 122.298581,282.908982 L 122.298581,283.552699 L 122.298581,284.018367 L 122.298581,284.300132 L 122.298581,284.394449" />
      <path d="M 122.298581,239.394449 L 121.850723,239.394449 L 121.408497,239.394449 L 120.977464,239.394449 L 120.563046,239.394449 L 120.170452,239.394449 L 119.804621,239.394449 L 119.470153,239.394449 L 119.171255,239.394449 L 118.911684,239.394449 L 118.694705,239.394449 L 118.523047,239.394449 L 118.398869,239.394449 L 118.323732,239.394449 L 118.298581,239.394449" />
      <path d="M 118.298581,239.394449 L 118.398869,239.394449 L 118.694705,239.394449 L 119.171255,239.394449 L 119.804621,239.394449 L 120.563046,239.394449 L 121.408497,239.394449 L 122.298581,239.394449 L 123.188664,239.394449 L 124.034116,239.394449 L 124.79254,239.394449 L 125.425907,239.394449 L 125.902456,239.394449 L 126.198292,239.394449 L 126.298581,239.394449" />
      <path d="M 126.298581,239.394449 Q 126.286005,239.394449 126.273429,239.394449 Q 126.235861,239.394449 126.198292,239.394449 Q 126.136203,239.394449 126.074114,239.394449 Q 125.988285,239.394449 125.902456,239.394449 Q 125.793967,239.394449 125.685477,239.394449 Q 125.555692,239.394449 125.425907,239.394449 Q 125.276457,239.394449 125.127008,239.394449 Q 124.959774,239.394449 124.79254,239.394449 Q 124.609624,239.394449 124.426709,239.394449 Q 124.230412,239.394449 124.034116,239.394449 Q 123.826906,239.394449 123.619697,239.394449 Q 123.404181,239.394449 123.188664,239.394449 Q 122.748018,239.394449 122.298581,239.394449" />
      <line x1="126.298581" y1="239.394449" x2="126.298581" y2="269.394449" />
      <path d="M 198.298581,258.0 L 198.17322,258.0 L 197.803425,258.0 L 197.207738,258.0 L 196.41603,258.0 L 195.467999,258.0 L 194.411185,258.0 L 193.298581,258.0 L 192.185976,258.0 L 191.129162,258.0 L 190.181132,258.0 L 189.389423,258.0 L 188.793736,258.0 L 188.423941,258.0 L 188.298581,258.0" />
      <path d="M 198.298581,278.0 A 5.0,5.0 90.0 0,0 188.298581,278.0" />
      <path d="M 198.298581,198.0 L 198.17322,198.0 L 197.803425,198.0 L 197.207738,198.0 L 196.41603,198.0 L 195.467999,198.0 L 194.411185,198.0 L 193.298581,198.0 L 192.185976,198.0 L 191.129162,198.0 L 190.181132,198.0 L 189.389423,198.0 L 188.793736,198.0 L 188.423941,198.0 L 188.298581,198.0" />
      <path d="M 193.298581,258.0 L 192.738758,258.0 L 192.185976,258.0 L 191.647185,258.0 L 191.129162,258.0 L 190.63842,258.0 L 190.181132,258.0 L 189.763047,258.0 L 189.389423,258.0 L 189.06496,258.0 L 188.793736,258.0 L 188.579164,258.0 L 188.423941,258.0 L 188.33002,258.0 L 188.298581,258.0" />
      <path d="M 188.298581,258.0 L 188.423941,258.0 L 188.793736,258.0 L 189.389423,258.0 L 190.181132,258.0 L 191.129162,258.0 L 192.185976,258.0 L 193.298581,258.0 L 194.411185,258.0 L 195.467999,258.0 L 196.41603,258.0 L 197.207738,258.0 L 197.803425,258.0 L 198.17322,258.0 L 198.298581,258.0" />
      <path d="M 198.298581,258.0 Q 198.282861,258.0 198.267142,258.0 Q 198.220181,258.0 198.17322,258.0 Q 198.095609,258.0 198.017997,258.0 Q 197.910711,258.0 197.803425,258.0 Q 197.667813,258.0 197.532202,258.0 Q 197.36997,258.0 197.207738,258.0 Q 197.020926,258.0 196.834114,258.0 Q 196.625072,258.0 196.41603,258.0 Q 196.187385,258.0 195.958741,258.0 Q 195.71337,258.0 195.467999,258.0 Q 195.208988,258.0 194.949976,258.0 Q 194.680581,258.0 194.411185,258.0 Q 193.860377,258.0 193.298581,258.0" />
      <path d="M 193.298581,258.0 L 193.298581,260.799112 L 193.298581,263.563023 L 193.298581,266.256977 L 193.298581,268.847093 L 193.298581,271.300802 L 193.298581,273.587245 L 193.298581,275.67767 L 193.298581,277.545787 L 193.298581,279.168105 L 193.298581,280.524222 L 193.298581,281.597083 L 193.298581,282.373198 L 193.298581,282.842805 L 193.298581,283.0" />
      <path d="M 193.298581,198.0 L 192.738758,198.0 L 192.185976,198.0 L 191.647185,198.0 L 191.129162,198.0 L 190.63842,198.0 L 190.181132,198.0 L 189.763047,198.0 L 189.389423,198.0 L 189.06496,198.0 L 188.793736,198.0 L 188.579164,198.0 L 188.423941,198.0 L 188.33002,198.0 L 188.298581,198.0" />
      <path d="M 188.298581,198.0 L 188.423941,198.0 L 188.793736,198.0 L 189.389423,198.0 L 190.181132,198.0 L 191.129162,198.0 L 192.185976,198.0 L 193.298581,198.0 L 194.411185,198.0 L 195.467999,198.0 L 196.41603,198.0 L 197.207738,198.0 L 197.803425,198.0 L 198.17322,198.0 L 198.298581,198.0" />
      <path d="M 198.298581,198.0 Q 198.282861,198.0 198.267142,198.0 Q 198.220181,198.0 198.17322,198.0 Q 198.095609,198.0 198.017997,198.0 Q 197.910711,198.0 197.803425,198.0 Q 197.667813,198.0 197.532202,198.0 Q 197.36997,198.0 197.207738,198.0 Q 197.020926,198.0 196.834114,198.0 Q 196.625072,198.0 196.41603,198.0 Q 196.187385,198.0 195.958741,198.0 Q 195.71337,198.0 195.467999,198.0 Q 195.208988,198.0 194.949976,198.0 Q 194.680581,198.0 194.411185,198.0 Q 193.860377,198.0 193.298581,198.0" />
      <line x1="198.298581" y1="198.0" x2="198.298581" y2="258.0" />
      <path d="M 138.298581,260.683375 L 138.17322,260.683375 L 137.803425,260.683375 L 137.207738,260.683375 L 136.41603,260.683375 L 135.467999,260.683375 L 134.411185,260.683375 L 133.298581,260.683375 L 132.185976,260.683375 L 131.129162,260.683375 L 130.181132,260.683375 L 129.389423,260.683375 L 128.793736,260.683375 L 128.423941,260.683375 L 128.298581,260.683375" />
      <path d="M 138.298581,280.683375 A 5.0,5.0 90.0 0,0 128.298581,280.683375" />
      <path d="M 138.298581,200.683375 L 138.17322,200.683375 L 137.803425,200.683375 L 137.207738,200.683375 L 136.41603,200.683375 L 135.467999,200.683375 L 134.411185,200.683375 L 133.298581,200.683375 L 132.185976,200.683375 L 131.129162,200.683375 L 130.181132,200.683375 L 129.389423,200.683375 L 128.793736,200.683375 L 128.423941,200.683375 L 128.298581,200.683375" />
      <path d="M 133.298581,260.683375 L 132.738758,260.683375 L 132.185976,260.683375 L 131.647185,260.683375 L 131.129162,260.683375 L 130.63842,260.683375 L 130.181132,260.683375 L 129.763047,260.683375 L 129.389423,260.683375 L 129.06496,260.683375 L 128.793736,260.683375 L 128.579164,260.683375 L 128.423941,260.683375 L 128.33002,260.683375 L 128.298581,260.683375" />
      <path d="M 128.298581,260.683375 L 128.423941,260.683375 L 128.793736,260.683375 L 129.389423,260.683375 L 130.181132,260.683375 L 131.129162,260.683375 L 132.185976,260.683375 L 133.298581,260.683375 L 134.411185,260.683375 L 135.467999,260.683375 L 136.41603,260.683375 L 137.207738,260.683375 L 137.803425,260.683375 L 138.17322,260.683375 L 138.298581,260.683375" />
      <path d="M 138.298581,260.683375 Q 138.282861,260.683375 138.267142,260.683375 Q 138.220181,260.683375 138.17322,260.683375 Q 138.095609,260.683375 138.017997,260.683375 Q 137.910711,260.683375 137.803425,260.683375 Q 137.667813,260.683375 137.532202,260.683375 Q 137.36997,260.683375 137.207738,260.683375 Q 137.020926,260.683375 136.834114,260.683375 Q 136.625072,260.683375 136.41603,260.683375 Q 136.187385,260.683375 135.958741,260.683375 Q 135.71337,260.683375 135.467999,260.683375 Q 135.208988,260.683375 134.949976,260.683375 Q 134.680581,260.683375 134.411185,260.683375 Q 133.860377,260.683375 133.298581,260.683375" />
      <path d="M 133.298581,260.683375 L 133.298581,263.482487 L 133.298581,266.246399 L 133.298581,268.940352 L 133.298581,271.530469 L 133.298581,273.984177 L 133.298581,276.27062 L 133.298581,278.361045 L 133.298581,280.229162 L 133.298581,281.85148 L 133.298581,283.207597 L 133.298581,284.280458 L 133.298581,285.056573 L 133.298581,285.52618 L 133.298581,285.683375" />
      <path d="M 133.298581,200.683375 L 132.738758,200.683375 L 132.185976,200.683375 L 131.647185,200.683375 L 131.129162,200.683375 L 130.63842,200.683375 L 130.181132,200.683375 L 129.763047,200.683375 L 129.389423,200.683375 L 129.06496,200.683375 L 128.793736,200.683375 L 128.579164,200.683375 L 128.423941,200.683375 L 128.33002,200.683375 L 128.298581,200.683375" />
      <path d="M 128.298581,200.683375 L 128.423941,200.683375 L 128.793736,200.683375 L 129.389423,200.683375 L 130.181132,200.683375 L 131.129162,200.683375 L 132.185976,200.683375 L 133.298581,200.683375 L 134.411185,200.683375 L 135.467999,200.683375 L 136.41603,200.683375 L 137.207738,200.683375 L 137.803425,200.683375 L 138.17322,200.683375 L 138.298581,200.683375" />
      <path d="M 138.298581,200.683375 Q 138.282861,200.683375 138.267142,200.683375 Q 138.220181,200.683375 138.17322,200.683375 Q 138.095609,200.683375 138.017997,200.683375 Q 137.910711,200.683375 137.803425,200.683375 Q 137.667813,200.683375 137.532202,200.683375 Q 137.36997,200.683375 137.207738,200.683375 Q 137.020926,200.683375 136.834114,200.683375 Q 136.625072,200.683375 136.41603,200.683375 Q 136.187385,200.683375 135.958741,200.683375 Q 135.71337,200.683375 135.467999,200.683375 Q 135.208988,200.683375 134.949976,200.683375 Q 134.680581,200.683375 134.411185,200.683375 Q 133.860377,200.683375 133.298581,200.683375" />
      <line x1="138.298581" y1="200.683375" x2="138.298581" y2="260.683375" />
      <line x1="155.798581" y1="39.0" x2="155.798581" y2="189.0" />
      <line x1="155.798581" y1="189.0" x2="230.798581" y2="189.0" />
      <line x1="155.798581" y1="39.0" x2="230.798581" y2="39.0" />
      <line x1="230.798581" y1="39.0" x2="230.798581" y2="189.0" />
      <circle cx="193.298581" cy="174.0" r="9.0" />
      <path d="M 230.798581,159.498632 L 230.798581,159.314585 L 230.798581,158.771671 L 230.798581,157.897114 L 230.798581,156.73477 L 230.798581,155.342921 L 230.798581,153.791362 L 230.798581,152.157895 L 230.798581,150.524427 L 230.798581,148.972868 L 230.798581,147.58102 L 230.798581,146.418675 L 230.798581,145.544119 L 230.798581,145.001205 L 230.798581,144.817157" />
      <path d="M 230.798581,144.817157 L 230.798581,145.001205 L 230.798581,145.544119 L 230.798581,146.418675 L 230.798581,147.58102 L 230.798581,148.972868 L 230.798581,150.524427 L 230.798581,152.157895 L 230.798581,153.791362 L 230.798581,155.342921 L 230.798581,156.73477 L 230.798581,157.897114 L 230.798581,158.771671 L 230.798581,159.314585 L 230.798581,159.498632" />
      <path d="M 317.9065,172.324921 L 317.85365,172.49228 L 317.697751,172.985962 L 317.446618,173.781213 L 317.112847,174.838157 L 316.713173,176.103792 L 316.267637,177.514655 L 315.798581,179.0 L 315.329524,180.485345 L 314.883989,181.896208 L 314.484314,183.161843 L 314.150543,184.218787 L 313.899411,185.014038 L 313.743511,185.50772 L 313.690661,185.675079" />
      <path d="M 143.798581,180.683375 Q 143.191977,180.565365 142.597238,180.449664 Q 142.306356,180.393075 142.015475,180.336486 Q 141.735805,180.282079 141.456135,180.227671 Q 141.191194,180.176129 140.926253,180.124587 Q 140.679373,180.076559 140.432493,180.02853 Q 140.206777,179.984619 139.981062,179.940708 Q 139.779351,179.901467 139.57764,179.862225 Q 139.402469,179.828147 139.227298,179.794069 Q 139.08087,179.765583 138.934442,179.737097 Q 138.818599,179.71456 138.702756,179.692024 Q 138.618955,179.675721 138.535153,179.659418 Q 138.484447,179.649554 138.433741,179.639689 Q 138.416768,179.636387 138.399795,179.633085" />
      <line x1="161.197367" y1="120.05029" x2="155.798581" y2="147.801569" />
      <path d="M 161.197367,120.05029 L 161.062008,120.023957 L 160.662719,119.946279 L 160.019521,119.82115 L 159.164669,119.654845 L 158.141026,119.455704 L 156.999924,119.233712 L 155.798581,119.0 L 154.597238,118.766288 L 153.456135,118.544296 L 152.432493,118.345155 L 151.57764,118.17885 L 150.934442,118.053721 L 150.535153,117.976043 L 150.399795,117.94971" />
      <path d="M 155.798581,119.0 Q 156.405184,119.11801 156.999924,119.233712 Q 157.290805,119.2903 157.581687,119.346889 Q 157.861356,119.401296 158.141026,119.455704 Q 158.405967,119.507246 158.670908,119.558788 Q 158.917788,119.606817 159.164669,119.654845 Q 159.390384,119.698756 159.616099,119.742667 Q 159.81781,119.781908 160.019521,119.82115 Q 160.194692,119.855228 160.369863,119.889306 Q 160.516291,119.917792 160.662719,119.946279 Q 160.778562,119.968815 160.894405,119.991351 Q 160.978206,120.007654 161.062008,120.023957 Q 161.112714,120.033822 161.16342,120.043686 Q 161.180393,120.046988 161.197367,120.05029" />
      <path d="M 149.287882,181.268391 C 149.290658,181.268813 148.897122,181.223123 148.186959,181.143496 C 147.171618,181.029652 145.494665,180.84656 143.798581,180.683375" />
      <path d="M 138.298581,180.683375 Q 138.315872,180.683375 138.333163,180.683375 Q 138.38482,180.683375 138.436477,180.683375 Q 138.52185,180.683375 138.607222,180.683375 Q 138.725237,180.683375 138.843252,180.683375 Q 138.992425,180.683375 139.141597,180.683375 Q 139.320052,180.683375 139.498507,180.683375 Q 139.704,180.683375 139.909493,180.683375 Q 140.13944,180.683375 140.369387,180.683375 Q 140.620895,180.683375 140.872404,180.683375 Q 141.142312,180.683375 141.41222,180.683375 Q 141.697133,180.683375 141.982046,180.683375 Q 142.278381,180.683375 142.574715,180.683375 Q 143.180604,180.683375 143.798581,180.683375" />
      <path d="M 138.298581,195.882059 A 16.0,16.0 0.0 0,1 128.298581,195.882059" />
      <path d="M 128.298581,180.683375 L 128.160684,180.683375 L 127.753909,180.683375 L 127.098654,180.683375 L 126.227775,180.683375 L 125.184941,180.683375 L 124.022446,180.683375 L 122.798581,180.683375 L 121.574715,180.683375 L 120.41222,180.683375 L 119.369387,180.683375 L 118.498507,180.683375 L 117.843252,180.683375 L 117.436477,180.683375 L 117.298581,180.683375" />
      <path d="M 117.298581,-444.0 L 117.436477,-444.0 L 117.843252,-444.0 L 118.498507,-444.0 L 119.369387,-444.0 L 120.41222,-444.0 L 121.574715,-444.0 L 122.798581,-444.0 L 124.022446,-444.0 L 125.184941,-444.0 L 126.227775,-444.0 L 127.098654,-444.0 L 127.753909,-444.0 L 128.160684,-444.0 L 128.298581,-444.0" />
      <path d="M 202.798581,-444.0 L 202.936477,-444.0 L 203.343252,-444.0 L 203.998507,-444.0 L 204.869387,-444.0 L 205.91222,-444.0 L 207.074715,-444.0 L 208.298581,-444.0 L 209.522446,-444.0 L 210.684941,-444.0 L 211.727775,-444.0 L 212.598654,-444.0 L 213.253909,-444.0 L 213.660684,-444.0 L 213.798581,-444.0" />
      <line x1="202.798581" y1="49.0" x2="202.798581" y2="39.0" />
      <path d="M 202.798581,49.0 L 202.936477,49.0 L 203.343252,49.0 L 203.998507,49.0 L 204.869387,49.0 L 205.91222,49.0 L 207.074715,49.0 L 208.298581,49.0 L 209.522446,49.0 L 210.684941,49.0 L 211.727775,49.0 L 212.598654,49.0 L 213.253909,49.0 L 213.660684,49.0 L 213.798581,49.0" />
      <path d="M 213.798581,49.0 L 213.660684,49.0 L 213.253909,49.0 L 212.598654,49.0 L 211.727775,49.0 L 210.684941,49.0 L 209.522446,49.0 L 208.298581,49.0 L 207.074715,49.0 L 205.91222,49.0 L 204.869387,49.0 L 203.998507,49.0 L 203.343252,49.0 L 202.936477,49.0 L 202.798581,49.0" />
      <line x1="-26.228941" y1="406.05" x2="63.417808" y2="406.05" />
      <line x1="69.895497" y1="406.05" x2="86.29858" y2="406.05" />
      <line x1="-26.228941" y1="425.85" x2="86.298581" y2="425.85" />
      <line x1="70.505864" y1="406.29901" x2="118.649885" y2="289.282297" />
      <line x1="120.783505" y1="284.096414" x2="131.453977" y2="258.16124" />
      <path d="M -312.8065,415.95 C -312.807306,414.602116 -312.528319,413.254942 -311.992271,412.018236 C -311.457701,410.780889 -310.666633,409.655313 -309.683517,408.73321 C -308.777073,407.881173 -307.707815,407.202594 -306.550933,406.745213 C -305.394504,406.286689 -304.150529,406.049395 -302.9065,406.05" />
      <path d="M -81.420533,406.05 C -98.692881,406.05 -117.023985,406.05 -135.421344,406.05 C -153.815201,406.05 -172.275313,406.05 -189.711114,406.05 C -206.030338,406.05 -221.530921,406.05 -235.414136,406.05 C -249.304931,406.05 -261.578357,406.05 -271.647952,406.05 C -281.725128,406.05 -289.598474,406.05 -294.893794,406.05 C -300.196696,406.05 -302.921573,406.05 -302.9065,406.05" />
      <path d="M -81.420533,425.85 C -117.91343,425.85 -158.971185,425.85 -195.322969,425.85 C -213.504429,425.85 -230.510865,425.85 -245.276692,425.85 C -260.048216,425.85 -272.572715,425.85 -281.943539,425.85 C -288.781107,425.85 -294.049916,425.85 -297.57979,425.85 C -301.113666,425.85 -302.908607,425.85 -302.9065,425.85" />
      <path d="M -26.228941,425.85 C -44.286475,425.85 -66.349909,425.85 -89.995464,425.85 C -113.640839,425.85 -138.855184,425.85 -163.209639,425.85 C -187.570076,425.85 -211.057472,425.85 -231.410481,425.85 C -241.589792,425.85 -250.99011,425.85 -259.35836,425.85 C -267.727562,425.85 -275.064285,425.85 -281.142106,425.85 C -288.23495,425.85 -293.706319,425.85 -297.372618,425.85 C -301.043233,425.85 -302.908779,425.85 -302.9065,425.85" />
      <path d="M -26.228941,406.05 C -37.597196,406.05 -50.475983,406.05 -64.322832,406.05 C -78.168581,406.05 -92.982393,406.05 -108.190977,406.05 C -123.39846,406.05 -139.000715,406.05 -154.39363,406.05 C -169.785444,406.05 -184.967918,406.05 -199.306118,406.05 C -214.474213,406.05 -228.755287,406.05 -241.487886,406.05 C -254.226815,406.05 -265.417268,406.05 -274.574998,406.05 C -283.739057,406.05 -290.870391,406.05 -295.661958,406.05 C -300.459854,406.05 -302.917981,406.05 -302.9065,406.05" />
      <path d="M -302.9065,425.85 C -304.264055,425.850829 -305.620881,425.567771 -306.864868,425.024212 C -308.619493,424.262766 -310.144117,422.975062 -311.189005,421.373235 C -312.239435,419.775037 -312.810129,417.862716 -312.8065,415.95" />
      <path d="M -302.9065,425.85 C -302.089932,425.85011 -301.273385,425.748568 -300.481702,425.548456 C -298.973355,425.168876 -297.558133,424.426572 -296.388381,423.401451 C -295.295077,422.446525 -294.416739,421.24741 -293.836056,419.916995 C -293.253393,418.587445 -292.969207,417.128476 -293.010253,415.677437 C -293.049138,414.226339 -293.413198,412.785223 -294.06816,411.489761 C -294.721192,410.193324 -295.6642,409.044373 -296.808408,408.151072 C -298.531447,406.796877 -300.715001,406.044544 -302.9065,406.05" />
      <path d="M -110.225119,430.95 C -128.670219,430.95 -147.728597,430.95 -166.209012,430.95 C -184.695891,430.95 -202.604807,430.95 -218.925519,430.95 C -235.252694,430.95 -249.991664,430.95 -262.313182,430.95 C -274.641164,430.95 -284.551694,430.95 -291.396522,430.95 C -295.188506,430.95 -298.074418,430.95 -300.003471,430.95 C -301.936584,430.95 -302.90426,430.95 -302.9065,430.95" />
      <path d="M -302.9065,430.95 C -301.831711,430.950096 -300.756908,430.834132 -299.706854,430.604769 C -297.404006,430.104179 -295.224333,429.049715 -293.402469,427.554886 C -291.699828,426.162594 -290.310705,424.389937 -289.365875,422.403795 C -288.349987,420.277373 -287.84724,417.908805 -287.911753,415.553058 C -287.968319,413.354363 -288.51759,411.170266 -289.507857,409.206384 C -290.495199,407.241029 -291.922137,405.498668 -293.654337,404.143329 C -295.50794,402.688042 -297.709794,401.680716 -300.022879,401.229785 C -300.97499,401.043504 -301.936123,400.950243 -302.90628,400.95" />
      <path d="M 126.298581,269.394449 C 126.298581,271.872975 126.298581,274.341862 126.298581,276.272118 C 126.298581,276.926486 126.298581,277.513428 126.298581,278.032945 C 126.298581,279.554352 126.298581,280.400654 126.298581,280.394449" />
      <path d="M 118.298581,269.394449 C 118.298581,271.872975 118.298581,274.341862 118.298581,276.272118 C 118.298581,276.926486 118.298581,277.513428 118.298581,278.032945 C 118.298581,279.554352 118.298581,280.400654 118.298581,280.394449" />
      <path d="M 126.298581,239.394449 C 126.298581,237.7239 126.298581,236.054711 126.298581,234.555116 C 126.298581,233.054311 126.298581,231.725549 126.298581,230.702726 C 126.298581,229.214389 126.298581,228.388523 126.298581,228.394449" />
      <path d="M 118.298581,239.394449 C 118.298581,237.7239 118.298581,236.054711 118.298581,234.555116 C 118.298581,233.054311 118.298581,231.725549 118.298581,230.702726 C 118.298581,229.214389 118.298581,228.388523 118.298581,228.394449" />
      <path d="M 118.298581,228.394449 C 118.294655,229.422047 118.708172,230.442948 119.426125,231.178151 C 120.093643,231.872311 121.024854,232.309906 121.984808,232.382216 C 122.944257,232.460931 123.932449,232.174363 124.700318,231.593145 C 125.19469,231.222673 125.601153,230.73519 125.876782,230.182334 C 126.153389,229.629967 126.299162,229.012225 126.298581,228.394449" />
      <line x1="118.298581" y1="239.394449" x2="118.298581" y2="269.394449" />
      <path d="M 198.298581,258.0 C 198.298581,262.558976 198.298581,267.09939 198.298581,270.627056 C 198.298581,271.804711 198.298581,272.872552 198.298581,273.803118 C 198.298581,275.151498 198.298581,276.210073 198.298581,276.921713 C 198.298581,277.634686 198.298581,278.000724 198.298581,278.0" />
      <path d="M 188.298581,258.0 C 188.298581,262.558976 188.298581,267.09939 188.298581,270.627056 C 188.298581,271.804711 188.298581,272.872552 188.298581,273.803118 C 188.298581,275.151498 188.298581,276.210073 188.298581,276.921713 C 188.298581,277.634686 188.298581,278.000724 188.298581,278.0" />
      <path d="M 198.298581,189.0 C 198.298581,185.99213 198.298581,183.378649 198.298581,181.483315" />
      <path d="M 188.298581,189.0 C 188.298581,185.99213 188.298581,183.378649 188.298581,181.483315" />
      <path d="M 198.298581,198.0 C 198.298581,195.696042 198.298581,193.392708 198.298581,191.225239 C 198.298581,188.169098 198.298581,185.390245 198.298581,183.207321 C 198.298581,181.55035 198.298581,180.234051 198.298581,179.347207 C 198.298581,178.458304 198.298581,177.998856 198.298581,178.0" />
      <path d="M 188.298581,198.0 C 188.298581,195.696042 188.298581,193.392708 188.298581,191.225239 C 188.298581,188.169098 188.298581,185.390245 188.298581,183.207321 C 188.298581,181.574976 188.298581,180.273104 188.298581,179.387002 C 188.298581,178.498961 188.298581,178.026692 188.298581,178.001191" />
      <path d="M 188.298581,178.0 C 188.297926,178.75306 188.471051,179.506083 188.800423,180.183267 C 189.128681,180.860991 189.613187,181.462878 190.205238,181.92826 C 190.778184,182.381749 191.457766,182.70661 192.172784,182.871292 C 192.88786,183.037078 193.638006,183.042763 194.35365,182.887725 C 195.069524,182.733754 195.75053,182.419139 196.333547,181.973145 C 196.916966,181.528182 197.40203,180.951919 197.736895,180.302469 C 198.104927,179.594694 198.299343,178.797739 198.298581,178.0" />
      <line x1="188.298581" y1="198.0" x2="188.298581" y2="258.0" />
      <path d="M 138.298581,260.683375 C 138.298581,265.242351 138.298581,269.782765 138.298581,273.310431 C 138.298581,274.488086 138.298581,275.555927 138.298581,276.486493 C 138.298581,277.834874 138.298581,278.893448 138.298581,279.605088 C 138.298581,280.318061 138.298581,280.6841 138.298581,280.683375" />
      <path d="M 128.298581,260.683375 C 128.298581,265.242351 128.298581,269.782765 128.298581,273.310431 C 128.298581,274.488086 128.298581,275.555927 128.298581,276.486493 C 128.298581,277.834874 128.298581,278.893448 128.298581,279.605088 C 128.298581,280.318061 128.298581,280.6841 128.298581,280.683375" />
      <path d="M 138.298581,200.683375 C 138.298581,197.541204 138.298581,194.401959 138.298581,191.603562 C 138.298581,189.176617 138.298581,187.007569 138.298581,185.273075 C 138.298581,183.803948 138.298581,182.645315 138.298581,181.865751 C 138.298581,181.084591 138.298581,180.6825 138.298581,180.683375" />
      <path d="M 128.298581,200.683375 C 128.298581,197.541204 128.298581,194.401959 128.298581,191.603562 C 128.298581,189.176617 128.298581,187.007569 128.298581,185.273075 C 128.298581,183.803948 128.298581,182.645315 128.298581,181.865751 C 128.298581,181.084591 128.298581,180.6825 128.298581,180.683375" />
      <path d="M 128.298581,180.683375 C 128.297926,181.436435 128.471051,182.189458 128.800423,182.866642 C 129.128681,183.544367 129.613187,184.146253 130.205238,184.611636 C 130.862716,185.130665 131.653846,185.479837 132.480315,185.61598 C 133.306474,185.75399 134.167973,185.678971 134.957824,185.400038 C 136.146165,184.986802 137.161549,184.104724 137.736914,182.985854 C 138.104922,182.278067 138.299344,181.481115 138.298581,180.683375" />
      <line x1="128.298581" y1="200.683375" x2="128.298581" y2="260.683375" />
      <line x1="213.798581" y1="49.0" x2="213.798581" y2="39.0" />
    </g>
    <g fill="none" stroke="rgb(106,113,128)" stroke-width="0.175" id="Center" stroke-dasharray="4.2 0.527222 0.004445 0.527222">
      <line x1="45.92" y1="415.95" x2="70.67" y2="415.95" />
      <line x1="58.3" y1="403.58" x2="58.3" y2="428.33" />
      <line x1="62.3" y1="395.0" x2="82.3" y2="395.0" />
      <line x1="72.3" y1="385.0" x2="72.3" y2="405.0" />
      <line x1="73.92" y1="415.95" x2="98.67" y2="415.95" />
      <line x1="86.3" y1="399.62" x2="86.3" y2="-366.03" />
      <line x1="86.3" y1="403.58" x2="86.3" y2="428.33" />
      <line x1="97.05" y1="284.0" x2="159.55" y2="284.0" />
      <line x1="105.8" y1="346.0" x2="150.8" y2="346.0" />
      <line x1="114.55" y1="284.0" x2="142.05" y2="284.0" />
      <line x1="122.8" y1="219.81" x2="122.8" y2="-444.0" />
      <line x1="128.3" y1="252.75" x2="128.3" y2="315.25" />
      <line x1="128.3" y1="270.25" x2="128.3" y2="297.75" />
      <line x1="128.3" y1="323.5" x2="128.3" y2="368.5" />
      <line x1="156.34" y1="116.23" x2="143.35" y2="183.01" />
      <line x1="162.05" y1="284.0" x2="224.55" y2="284.0" />
      <line x1="179.55" y1="284.0" x2="207.05" y2="284.0" />
      <line x1="182.05" y1="174.0" x2="204.55" y2="174.0" />
      <line x1="193.3" y1="162.75" x2="193.3" y2="185.25" />
      <line x1="193.3" y1="252.75" x2="193.3" y2="315.25" />
      <line x1="193.3" y1="270.25" x2="193.3" y2="297.75" />
      <line x1="208.3" y1="80.23" x2="208.3" y2="-444.0" />
      <line x1="221.23" y1="149.14" x2="317.91" y2="182.57" />
    </g>
  </g>
</svg>